<?xml version="1.0" encoding="UTF-8" standalone="no"?>
<!-- Created with Inkscape (http://www.inkscape.org/) -->

<svg
   xmlns:dc="http://purl.org/dc/elements/1.1/"
   xmlns:cc="http://creativecommons.org/ns#"
   xmlns:rdf="http://www.w3.org/1999/02/22-rdf-syntax-ns#"
   xmlns:svg="http://www.w3.org/2000/svg"
   xmlns="http://www.w3.org/2000/svg"
   xmlns:xlink="http://www.w3.org/1999/xlink"
   xmlns:sodipodi="http://sodipodi.sourceforge.net/DTD/sodipodi-0.dtd"
   xmlns:inkscape="http://www.inkscape.org/namespaces/inkscape"
   width="210mm"
   height="297mm"
   viewBox="0 0 210 297"
   version="1.1"
   id="svg8"
   inkscape:version="0.92.4 (5da689c313, 2019-01-14)"
   sodipodi:docname="R_GCI text.svg">
  <defs
     id="defs2" />
  <sodipodi:namedview
     id="base"
     pagecolor="#ffffff"
     bordercolor="#666666"
     borderopacity="1.0"
     inkscape:pageopacity="0.0"
     inkscape:pageshadow="2"
     inkscape:zoom="1.4142136"
     inkscape:cx="-121.87775"
     inkscape:cy="2208.4739"
     inkscape:document-units="mm"
     inkscape:current-layer="layer1"
     showgrid="false"
     units="cm"
     showborder="false"
     inkscape:window-width="1366"
     inkscape:window-height="705"
     inkscape:window-x="-8"
     inkscape:window-y="-8"
     inkscape:window-maximized="1"
     inkscape:object-paths="true" />
  <metadata
     id="metadata5">
    <rdf:RDF>
      <cc:Work
         rdf:about="">
        <dc:format>image/svg+xml</dc:format>
        <dc:type
           rdf:resource="http://purl.org/dc/dcmitype/StillImage" />
        <dc:title />
      </cc:Work>
    </rdf:RDF>
  </metadata>
  <g
     inkscape:label="Layer 1"
     inkscape:groupmode="layer"
     id="layer1">
    <path
       sodipodi:type="star"
       style="fill:#ff0000;fill-opacity:0.65745856;stroke-width:0.26458332"
       id="path4543"
       sodipodi:sides="6"
       sodipodi:cx="-33.337502"
       sodipodi:cy="-281.11459"
       sodipodi:r1="29.588415"
       sodipodi:r2="25.624317"
       sodipodi:arg1="0.52359878"
       sodipodi:arg2="1.0471976"
       inkscape:flatsided="true"
       inkscape:rounded="0"
       inkscape:randomized="0"
       d="m -7.7131824,-266.32039 -25.6243196,14.79421 -25.624319,-14.79421 0,-29.58841 25.62432,-14.79421 25.6243187,14.79421 z"
       inkscape:transform-center-y="1.6275658e-05"
       transform="matrix(0.9070707,0,0,1.0312974,-13.416781,6.284627)" />
    <path
       style="fill:#2a2aff;stroke:#000000;stroke-width:0.05518762px;stroke-linecap:butt;stroke-linejoin:miter;stroke-opacity:1"
       d="m -61.342782,-294.94676 2.004028,0.12574 1.582132,-0.503 0.843801,-0.50302 0.843801,-0.62878 0.421902,-0.62876 1.054753,-0.62877 1.265703,-2.38932 0.527375,-1.50904 0.421903,-1.25755 v -1.00602 l 0.105475,-0.75452 0.105475,-0.75453 v -0.37725 l 2.42593,-1.00604 0.949277,0.88029 0.738328,0.503 0.949277,0.75453 0.949277,0.2515 0.738329,0.62878 h 0.738326 l 0.843803,0.37725 h 0.63285 l 1.054751,-0.12575 0.843804,-0.12577 1.160228,-0.25149 1.265703,-1.00601 0.632853,-0.75455 1.265702,-0.88028 0.210952,-0.2515 2.63688,1.25755 0.21095,1.76055 v 1.38328 l 0.421899,1.50905 0.738329,1.00603 0.527379,1.8863 0.949279,0.88028 1.371176,0.75451 1.476652,1.13179 1.054751,0.25152 1.160229,0.12574 h 1.054756 l 1.265701,3.39536 -1.054755,1.76056 -0.949279,1.76054 -0.316423,1.76057 -0.421898,1.76056 v 1.25753 1.50906 l 0.843801,2.51506 1.687603,2.89233 0.210951,0.37727 -1.054755,3.26959 -1.476652,-0.12575 -1.898557,0.62877 -1.687605,0.88028 -1.476653,1.25753 -0.949272,1.63481 -0.843807,1.50905 -0.738327,2.26355 0.105477,2.26358 -0.105477,0.503 -2.636879,1.25754 -0.738328,-1.00604 -0.738325,-0.7545 -1.371179,-1.13178 -1.265705,-0.50302 -1.687603,-0.12575 h -0.949278 l -2.004028,0.12575 -0.632851,0.12576 -0.949281,0.7545 -1.582126,0.62877 -0.738328,1.50905 -0.421902,0.12576 -2.742355,-1.38329 0.21095,-1.63479 -0.21095,-1.63481 -0.527379,-1.38328 -1.265702,-2.51509 -1.265703,-1.50904 -1.476652,-0.88028 -1.371179,-0.88028 -1.687605,-0.37724 h -1.265703 l -1.160228,-3.39537 1.687605,-2.26355 0.949275,-2.7666 0.316426,-2.76657 -0.527375,-3.39537 -0.738326,-1.76055 -1.687605,-2.26357 z"
       id="path50"
       inkscape:connector-curvature="0" />
    <ellipse
       style="fill:#e2dbe3;stroke-width:0.29580101"
       id="path71"
       cx="-43.110722"
       cy="-285.14075"
       rx="13.68923"
       ry="15.320858" />
    <ellipse
       style="fill:#ff6600;stroke-width:0.26458332"
       id="path73"
       cx="-43.315083"
       cy="-285.24948"
       rx="9.6015854"
       ry="10.020308" />
    <path
       style="fill:#d7e3f4;stroke:#000000;stroke-width:0.03410352px;stroke-linecap:butt;stroke-linejoin:miter;stroke-opacity:1"
       d="m -51.055606,-288.77704 c -0.678061,1.08909 -0.797719,1.37017 -0.797719,1.37017 l -0.07977,0.9837 0.279201,0.94859 0.478634,0.6324 0.478631,0.6324 0.837606,0.49187 0.837608,0.4567 0.917379,0.35133 0.91738,0.4216 4.307691,0.4216 1.595442,-0.10538 3.749287,-0.91346 1.276352,-0.80805 0.957265,-1.26479 0.239318,-1.37017 -0.239318,-1.65125 -0.757833,-1.01885 -1.435897,-0.98372 -1.595443,-0.59726 -2.51282,-0.45672 -3.111112,-0.035 -3.390312,0.70265 -1.914531,0.98372 z"
       id="path91-3"
       inkscape:connector-curvature="0" />
    <path
       inkscape:connector-curvature="0"
       id="use147"
       d="m -48.796749,-288.37926 c -0.541132,0.85261 -0.636626,1.07265 -0.636626,1.07265 l -0.06366,0.77009 0.222818,0.74262 0.381977,0.49505 0.381976,0.49508 0.668457,0.38506 0.668459,0.35755 0.732122,0.27502 0.732121,0.33006 3.437785,0.33004 1.273254,-0.0825 2.992147,-0.71511 1.018602,-0.63258 0.763951,-0.99015 0.190989,-1.07263 -0.190989,-1.29269 -0.604795,-0.79762 -1.145927,-0.77008 -1.273255,-0.46759 -2.005374,-0.35753 -2.482846,-0.0275 -2.705663,0.55008 -1.527906,0.77011 z"
       style="fill:#1c1f24;stroke:#000000;stroke-width:0.02695602px;stroke-linecap:butt;stroke-linejoin:miter;stroke-opacity:1"
       inkscape:transform-center-x="0.14303922"
       inkscape:transform-center-y="2.6109505" />
    <path
       inkscape:connector-curvature="0"
       id="path169"
       d="m -45.181965,-289.33887 c -0.02968,9.66359 0,9.66359 0,9.66359 l 2.937631,-0.0302 v -3.77485 h 0.771499 l 0.474769,0.27179 1.928747,3.53325 3.145341,-0.0906 -2.106785,-3.77484 -0.385748,-0.27179 -0.771501,-0.24159 1.424307,-0.51338 0.712152,-0.75497 0.29673,-1.05695 0.02968,-0.78517 -0.207711,-0.72477 -0.415422,-0.72477 -0.89019,-0.54358 -1.008883,-0.30198 z"
       style="fill:#0000ff;stroke:#000000;stroke-width:0.02727141px;stroke-linecap:butt;stroke-linejoin:miter;stroke-opacity:1" />
    <use
       x="0"
       y="0"
       xlink:href="#path169"
       id="use171" />
    <path
       inkscape:connector-curvature="0"
       id="path173"
       d="m -43.412804,-288.09097 c -0.179644,2.03607 -0.179644,2.03607 -0.179644,2.03607 l 4.071932,-0.0784 0.658695,-0.31323 0.538932,-0.82227 -0.359287,-0.54817 -0.479051,-0.19579 z"
       style="fill:#1c1f24;stroke:#000000;stroke-width:0.04411368px;stroke-linecap:butt;stroke-linejoin:miter;stroke-opacity:1" />
    <text
       xml:space="preserve"
       style="font-style:normal;font-weight:normal;font-size:10.58333302px;line-height:1.25;font-family:sans-serif;letter-spacing:0px;word-spacing:0px;fill:#000000;fill-opacity:1;stroke:none;stroke-width:0.26458332"
       x="-63.5"
       y="-231.50522"
       id="text205"><tspan
         sodipodi:role="line"
         id="tspan203"
         x="-63.5"
         y="-231.50522"
         style="stroke-width:0.26458332"> </tspan></text>
    <text
       xml:space="preserve"
       style="font-style:normal;font-weight:normal;font-size:10.58333302px;line-height:1.25;font-family:sans-serif;letter-spacing:0px;word-spacing:0px;fill:#000000;fill-opacity:1;stroke:none;stroke-width:0.26458332"
       x="36.644791"
       y="-230.1823"
       id="text209"><tspan
         sodipodi:role="line"
         id="tspan207"
         x="36.644791"
         y="-220.52679"
         style="stroke-width:0.26458332" /></text>
    <text
       xml:space="preserve"
       style="font-style:normal;font-weight:normal;font-size:4.61120176px;line-height:1.25;font-family:sans-serif;letter-spacing:0px;word-spacing:0px;fill:#000000;fill-opacity:1;stroke:none;stroke-width:0.11528004"
       x="318.57294"
       y="-65.878685"
       id="text213"
       transform="matrix(0.06782976,-0.87916732,1.1325714,0.06310272,0,0)"><tspan
         sodipodi:role="line"
         id="tspan211"
         x="318.57294"
         y="-65.878685"
         style="stroke-width:0.11528004">G</tspan></text>
    <text
       xml:space="preserve"
       style="font-style:normal;font-weight:normal;font-size:6.01661158px;line-height:1.25;font-family:sans-serif;letter-spacing:0px;word-spacing:0px;fill:#000000;fill-opacity:1;stroke:none;stroke-width:0.15041527"
       x="271.23593"
       y="-120.18674"
       id="text217"
       transform="matrix(0.2409889,-0.96094126,0.9855391,0.21973964,0,0)"
       inkscape:transform-center-x="-0.067782118"
       inkscape:transform-center-y="-0.71709425"><tspan
         sodipodi:role="line"
         id="tspan215"
         x="271.23593"
         y="-120.18674"
         style="stroke-width:0.15041527">o</tspan></text>
    <text
       xml:space="preserve"
       style="font-style:normal;font-weight:normal;font-size:5.98777628px;line-height:1.25;font-family:sans-serif;letter-spacing:0px;word-spacing:0px;fill:#000000;fill-opacity:1;stroke:none;stroke-width:0.1496944"
       x="218.65814"
       y="-207.8504"
       id="text221"
       transform="matrix(0.5574725,-0.87802948,0.83931238,0.47187797,0,0)"><tspan
         sodipodi:role="line"
         id="tspan219"
         x="218.65814"
         y="-207.8504"
         style="stroke-width:0.1496944">o</tspan></text>
    <text
       xml:space="preserve"
       style="font-style:normal;font-weight:normal;font-size:5.21478558px;line-height:1.25;font-family:sans-serif;letter-spacing:0px;word-spacing:0px;fill:#000000;fill-opacity:1;stroke:none;stroke-width:0.13036965"
       x="207.53563"
       y="-214.70897"
       id="text225"
       transform="matrix(0.5908712,-0.82035195,0.80727841,0.57160948,0,0)"
       inkscape:transform-center-x="-0.396875"
       inkscape:transform-center-y="0.396875"><tspan
         sodipodi:role="line"
         id="tspan223"
         x="207.53563"
         y="-214.70897"
         style="stroke-width:0.13036965">g</tspan></text>
    <text
       xml:space="preserve"
       style="font-style:normal;font-weight:normal;font-size:5.50632286px;line-height:1.25;font-family:sans-serif;letter-spacing:0px;word-spacing:0px;fill:#000000;fill-opacity:1;stroke:none;stroke-width:0.13765806"
       x="164.39554"
       y="-263.07477"
       id="text229"
       transform="matrix(0.7969998,-0.59763739,0.67874727,0.74574079,0,0)"><tspan
         sodipodi:role="line"
         id="tspan227"
         x="164.39554"
         y="-263.07477"
         style="stroke-width:0.13765806">l</tspan></text>
    <text
       xml:space="preserve"
       style="font-style:normal;font-weight:normal;font-size:5.75540113px;line-height:1.25;font-family:sans-serif;letter-spacing:0px;word-spacing:0px;fill:#000000;fill-opacity:1;stroke:none;stroke-width:0.14388503"
       x="152.45193"
       y="-257.43127"
       id="text233"
       transform="matrix(0.77187203,-0.6408122,0.63672019,0.76694312,0,0)"><tspan
         sodipodi:role="line"
         id="tspan231"
         x="152.45193"
         y="-257.43127"
         style="stroke-width:0.14388503">e</tspan></text>
    <text
       xml:space="preserve"
       style="font-style:normal;font-weight:normal;font-size:5.04663372px;line-height:1.25;font-family:sans-serif;letter-spacing:0px;word-spacing:0px;fill:#000000;fill-opacity:1;stroke:none;stroke-width:0.12616585"
       x="-149.31764"
       y="-269.21881"
       id="text237"
       transform="matrix(0.9678194,0.41696207,-0.37546164,0.87149187,0,0)"><tspan
         sodipodi:role="line"
         id="tspan235"
         x="-149.31764"
         y="-269.21881"
         style="stroke-width:0.12616585">C</tspan></text>
    <text
       xml:space="preserve"
       style="font-style:normal;font-weight:normal;font-size:5.89668322px;line-height:1.25;font-family:sans-serif;letter-spacing:0px;word-spacing:0px;fill:#000000;fill-opacity:1;stroke:none;stroke-width:0.14741707"
       x="-182.54832"
       y="-244.90341"
       id="text241"
       transform="matrix(0.90290524,0.552405,-0.50900498,0.79612242,0,0)"><tspan
         sodipodi:role="line"
         id="tspan239"
         x="-182.54832"
         y="-244.90341"
         style="stroke-width:0.14741707">o</tspan></text>
    <text
       xml:space="preserve"
       style="font-style:normal;font-weight:normal;font-size:4.91770697px;line-height:1.25;font-family:sans-serif;letter-spacing:0px;word-spacing:0px;fill:#000000;fill-opacity:1;stroke:none;stroke-width:0.12294266"
       x="-279.30457"
       y="-172.5228"
       id="text245"
       transform="matrix(0.67154118,0.65788612,-0.86833452,0.63843407,0,0)"><tspan
         sodipodi:role="line"
         id="tspan243"
         x="-279.30457"
         y="-172.5228"
         style="stroke-width:0.12294266">d</tspan></text>
    <text
       xml:space="preserve"
       style="font-style:normal;font-weight:normal;font-size:5.45471191px;line-height:1.25;font-family:sans-serif;letter-spacing:0px;word-spacing:0px;fill:#000000;fill-opacity:1;stroke:none;stroke-width:0.1363678"
       x="-281.00552"
       y="-138.75888"
       id="text249"
       transform="matrix(0.56116258,0.70018301,-0.87768575,0.68689425,0,0)"><tspan
         sodipodi:role="line"
         id="tspan247"
         x="-281.00552"
         y="-138.75888"
         style="stroke-width:0.1363678">e</tspan></text>
    <text
       xml:space="preserve"
       style="font-style:normal;font-weight:normal;font-size:5.48508739px;line-height:1.25;font-family:sans-serif;letter-spacing:0px;word-spacing:0px;fill:#000000;fill-opacity:1;stroke:none;stroke-width:0.13712718"
       x="-265.83142"
       y="-34.207859"
       id="text253"
       transform="matrix(0.24380808,1.0536027,-0.88170697,0.29134041,0,0)"
       inkscape:transform-center-x="-1.9340338"
       inkscape:transform-center-y="-0.4117939"><tspan
         sodipodi:role="line"
         id="tspan251"
         x="-265.83142"
         y="-34.207859"
         style="stroke-width:0.13712718">-</tspan></text>
    <text
       xml:space="preserve"
       style="font-style:normal;font-weight:normal;font-size:4.39417458px;line-height:1.25;font-family:sans-serif;letter-spacing:0px;word-spacing:0px;fill:#000000;fill-opacity:1;stroke:none;stroke-width:0.10985436"
       x="-320.42804"
       y="30.313652"
       id="text257"
       transform="matrix(-1.791587e-4,0.90136716,-1.1094301,0.0216699,0,0)"><tspan
         sodipodi:role="line"
         id="tspan255"
         x="-320.42804"
         y="30.313652"
         style="stroke-width:0.10985436">in</tspan></text>
    <text
       xml:space="preserve"
       style="font-style:normal;font-weight:normal;font-size:10.58333302px;line-height:1.25;font-family:sans-serif;letter-spacing:0px;word-spacing:0px;fill:#000000;fill-opacity:1;stroke:none;stroke-width:0.26458332"
       x="35.321873"
       y="-288.78751"
       id="text261"><tspan
         sodipodi:role="line"
         id="tspan259"
         x="35.321873"
         y="-279.13202"
         style="stroke-width:0.26458332" /></text>
    <ellipse
       style="fill:#000000;fill-opacity:0;stroke-width:0.26458332"
       id="path263"
       cx="-32.190723"
       cy="-281.55832"
       rx="1.9479029"
       ry="0.74249572" />
    <ellipse
       style="fill:#000000;fill-opacity:0;stroke-width:0.26458332"
       id="path265"
       cx="21.629686"
       cy="-290.90417"
       rx="6.6807289"
       ry="5.6885414" />
    <ellipse
       style="fill:#2b2200;fill-opacity:0;stroke-width:0.26458332"
       id="path267"
       cx="-32.34309"
       cy="-280.84998"
       rx="0.56199336"
       ry="0.017564973" />
    <ellipse
       style="fill:#1f241c;fill-opacity:0;stroke-width:0.26458332"
       id="path269"
       cx="9.4588537"
       cy="-275.82291"
       rx="8.2682295"
       ry="5.6885414" />
    <text
       xml:space="preserve"
       style="font-style:normal;font-weight:normal;font-size:10.58333302px;line-height:1.25;font-family:sans-serif;letter-spacing:0px;word-spacing:0px;fill:#000000;fill-opacity:1;stroke:none;stroke-width:0.26458332"
       x="-34.065102"
       y="-281.24689"
       id="text273"><tspan
         sodipodi:role="line"
         id="tspan271"
         x="-34.065102"
         y="-281.24689"
         style="stroke-width:0.26458332">.</tspan></text>
    <text
       xml:space="preserve"
       style="font-style:normal;font-weight:normal;font-size:10.58333302px;line-height:1.25;font-family:sans-serif;letter-spacing:0px;word-spacing:0px;fill:#000000;fill-opacity:1;stroke:none;stroke-width:0.26458332"
       x="-56.091667"
       y="-280.9823"
       id="text277"><tspan
         sodipodi:role="line"
         id="tspan275"
         x="-56.091667"
         y="-280.9823"
         style="stroke-width:0.26458332">.</tspan></text>
    <text
       xml:space="preserve"
       style="font-style:normal;font-weight:normal;font-size:4.21797132px;line-height:1.25;font-family:sans-serif;letter-spacing:0px;word-spacing:0px;fill:#000000;fill-opacity:1;stroke:none;stroke-width:0.10544929"
       x="-282.33279"
       y="-101.93956"
       id="text281"
       transform="matrix(0.51700658,0.76352167,-0.89535729,0.61193671,0,0)"
       inkscape:transform-center-x="-0.8265519"
       inkscape:transform-center-y="-0.86148442"><tspan
         sodipodi:role="line"
         id="tspan279"
         x="-282.33279"
         y="-101.93956"
         style="stroke-width:0.10544929">R</tspan></text>
    <text
       xml:space="preserve"
       style="font-style:normal;font-weight:normal;font-size:4.78838778px;line-height:1.25;font-family:sans-serif;letter-spacing:0px;word-spacing:0px;fill:#000000;fill-opacity:1;stroke:none;stroke-width:0.11970969"
       x="-138.75516"
       y="-265.12259"
       id="text285"
       transform="matrix(0.99819225,0.14021878,-0.33247388,0.95510751,0,0)"><tspan
         sodipodi:role="line"
         id="tspan283"
         x="-138.75516"
         y="-265.12259"
         style="stroke-width:0.11970969">P</tspan></text>
    <text
       xml:space="preserve"
       style="font-style:normal;font-weight:normal;font-size:5.08092451px;line-height:1.25;font-family:sans-serif;letter-spacing:0px;word-spacing:0px;fill:#000000;fill-opacity:1;stroke:none;stroke-width:0.1270231"
       x="-113.9541"
       y="-239.5101"
       id="text303"
       transform="matrix(0.91020849,0.16255412,-0.2356088,1.056572,0,0)"
       inkscape:transform-center-x="-0.45227725"
       inkscape:transform-center-y="-0.81883309"><tspan
         sodipodi:role="line"
         id="tspan301"
         x="-113.9541"
         y="-239.5101"
         style="stroke-width:0.1270231">r</tspan></text>
    <text
       xml:space="preserve"
       style="font-style:normal;font-weight:normal;font-size:5.16493082px;line-height:1.25;font-family:sans-serif;letter-spacing:0px;word-spacing:0px;fill:#000000;fill-opacity:1;stroke:none;stroke-width:0.12912327"
       x="23.922949"
       y="-285.22821"
       id="text307"
       transform="matrix(1.0109431,-0.26273192,0.24081002,0.92659176,0,0)"><tspan
         sodipodi:role="line"
         id="tspan305"
         x="23.922949"
         y="-285.22821"
         style="stroke-width:0.12912327">oj</tspan></text>
    <text
       xml:space="preserve"
       style="font-style:normal;font-weight:normal;font-size:4.79774904px;line-height:1.25;font-family:sans-serif;letter-spacing:0px;word-spacing:0px;fill:#000000;fill-opacity:1;stroke:none;stroke-width:0.11994372"
       x="114.35846"
       y="-239.95851"
       id="text311"
       transform="matrix(0.81069228,-0.50729513,0.54882257,0.89008493,0,0)"><tspan
         sodipodi:role="line"
         id="tspan309"
         x="114.35846"
         y="-239.95851"
         style="stroke-width:0.11994372">ec</tspan></text>
    <text
       xml:space="preserve"
       style="font-style:normal;font-weight:normal;font-size:5.50763464px;line-height:1.25;font-family:sans-serif;letter-spacing:0px;word-spacing:0px;fill:#000000;fill-opacity:1;stroke:none;stroke-width:0.13769087"
       x="123.87834"
       y="-290.39719"
       id="text315"
       transform="matrix(0.95639109,-0.80672733,0.52514467,0.60263155,0,0)"
       inkscape:transform-center-x="-0.32024139"
       inkscape:transform-center-y="-1.3892028"><tspan
         sodipodi:role="line"
         id="tspan313"
         x="123.87834"
         y="-290.39719"
         style="stroke-width:0.13769087">t</tspan></text>
  </g>
</svg>
